<?xml version="1.0" standalone="no"?>
<!DOCTYPE svg PUBLIC "-//W3C//DTD SVG 20010904//EN"
 "http://www.w3.org/TR/2001/REC-SVG-20010904/DTD/svg10.dtd">
<svg version="1.0" xmlns="http://www.w3.org/2000/svg"
 width="700.000000pt" height="700.000000pt" viewBox="0 0 700.000000 700.000000"
 preserveAspectRatio="xMidYMid meet">
<metadata>
Created by potrace 1.14, written by Peter Selinger 2001-2017
</metadata>
<g transform="translate(0.000000,700.000000) scale(0.100000,-0.100000)"
fill="#000000" stroke="none">
<path d="M0 3500 l0 -3500 3500 0 3500 0 0 3500 0 3500 -3500 0 -3500 0 0
-3500z m4294 2300 c253 -66 477 -242 569 -448 71 -158 80 -342 24 -507 l-14
-40 111 0 c61 -1 125 -4 141 -7 17 -4 41 -9 54 -12 49 -11 98 -29 165 -63 244
-121 393 -358 381 -607 -8 -170 -85 -324 -229 -458 -28 -26 -48 -49 -46 -50 3
-2 30 -20 60 -40 285 -185 389 -508 278 -866 -57 -187 -185 -358 -346 -463
-126 -83 -249 -118 -403 -114 -107 3 -132 7 -221 36 -34 11 -75 24 -90 29
l-26 8 -1 -81 c-1 -45 -3 -91 -4 -102 -21 -139 -92 -276 -192 -368 -171 -158
-402 -210 -619 -140 -62 20 -170 83 -221 129 -26 24 -41 32 -43 22 -12 -44
-50 -122 -89 -180 -91 -138 -243 -244 -413 -288 -105 -27 -330 -22 -445 9 -88
24 -283 116 -330 156 -16 14 -52 44 -78 67 -111 94 -204 263 -223 400 -7 53
-7 164 1 198 3 14 8 39 11 55 7 43 56 173 81 217 2 4 -28 6 -67 4 -226 -9
-440 96 -559 275 -143 214 -124 488 48 680 l51 57 -98 48 c-111 56 -217 151
-270 244 -159 282 -56 675 240 917 93 76 248 144 379 167 89 16 278 12 367 -7
34 -7 62 -12 62 -9 0 2 -13 23 -28 46 -34 50 -86 173 -101 241 -24 106 -15
239 25 343 64 172 222 317 414 382 95 33 261 37 361 9 140 -38 251 -103 356
-209 46 -46 54 -50 60 -34 7 20 34 61 68 103 105 131 241 218 406 261 121 31
298 27 443 -10z"/>
<path d="M3975 5509 c-187 -35 -332 -174 -364 -346 -9 -45 -7 -172 3 -278 3
-27 8 -86 11 -130 3 -44 8 -100 10 -125 3 -25 8 -81 10 -125 3 -44 7 -100 10
-125 3 -38 13 -167 19 -259 1 -17 13 -28 46 -43 25 -11 57 -29 71 -39 l26 -18
39 42 c124 134 238 259 256 279 11 13 36 41 56 63 20 22 71 78 112 125 41 46
87 99 103 116 78 88 142 175 168 229 114 242 4 489 -269 600 -33 13 -75 27
-94 30 -54 10 -170 12 -213 4z"/>
<path d="M2689 5376 c-102 -26 -171 -96 -204 -205 -14 -45 -7 -145 12 -201 26
-74 53 -114 165 -250 82 -100 305 -387 393 -505 16 -22 35 -46 42 -53 7 -7 20
-26 30 -43 12 -20 22 -27 33 -23 8 4 40 14 70 22 58 17 72 28 66 52 -3 8 -7
51 -11 95 -6 78 -9 119 -20 255 -5 62 -11 125 -20 215 -2 22 -7 67 -10 100
-25 248 -45 312 -127 401 -105 114 -285 174 -419 140z"/>
<path d="M4905 4485 c-63 -11 -138 -43 -171 -72 -10 -10 -51 -44 -89 -75 -39
-31 -82 -67 -96 -80 -49 -43 -193 -173 -252 -228 -33 -30 -74 -68 -91 -83 -17
-16 -63 -60 -102 -98 l-72 -69 28 -68 c23 -57 31 -67 51 -66 38 1 172 14 199
19 14 2 50 7 80 9 30 3 71 7 90 10 33 5 114 14 190 22 19 2 53 6 75 9 51 6
129 15 169 19 170 17 290 73 384 180 33 37 79 121 89 160 12 49 10 134 -5 179
-49 154 -283 267 -477 232z"/>
<path d="M1941 4368 c-159 -28 -292 -107 -371 -219 -56 -81 -75 -140 -75 -234
0 -67 5 -89 28 -137 65 -133 209 -202 401 -193 85 4 184 13 226 20 14 2 45 7
70 10 51 6 61 7 260 35 80 11 152 22 160 25 8 2 40 7 70 10 30 4 55 7 56 8 1
1 18 35 38 75 42 87 48 73 -83 206 -292 297 -366 350 -542 392 -39 10 -190 11
-238 2z"/>
<path d="M3334 3860 c-98 -21 -210 -100 -259 -185 -89 -151 -65 -336 59 -460
228 -226 611 -115 677 197 38 174 -72 362 -251 432 -52 21 -167 29 -226 16z"/>
<path d="M4968 3375 c-1 -2 -41 -6 -88 -10 -47 -3 -101 -8 -120 -10 -19 -2
-71 -6 -115 -10 -44 -3 -98 -8 -120 -10 -22 -2 -74 -7 -115 -11 -41 -3 -86 -8
-100 -9 -14 -1 -61 -6 -105 -10 -73 -7 -108 -10 -127 -14 -5 0 -8 -7 -8 -13 0
-7 -13 -39 -29 -71 l-28 -57 66 -58 c36 -32 165 -141 286 -241 408 -339 447
-365 573 -395 298 -68 567 173 566 509 -1 73 -6 102 -26 153 -48 118 -137 202
-252 238 -44 14 -247 29 -258 19z"/>
<path d="M3707 2881 l-58 -26 5 -40 c3 -22 8 -62 11 -90 3 -27 8 -68 10 -90 3
-22 7 -62 10 -90 3 -27 8 -66 10 -85 3 -19 7 -53 10 -75 2 -22 6 -56 9 -75 2
-19 7 -62 11 -95 23 -189 111 -334 240 -396 131 -63 280 -19 357 106 41 67 57
129 54 208 -6 131 -60 214 -306 470 -107 112 -274 280 -291 293 -10 8 -28 4
-72 -15z"/>
<path d="M2968 2767 c-151 -159 -161 -170 -263 -282 -44 -48 -93 -102 -110
-120 -61 -64 -144 -173 -169 -221 -116 -223 -42 -458 184 -587 209 -118 492
-88 628 67 63 72 100 171 104 274 1 44 -10 205 -18 245 -1 9 -6 54 -9 100 -4
45 -8 89 -11 97 -2 8 -6 43 -9 78 -9 93 -14 142 -20 192 -3 25 -7 65 -10 90
-15 144 -13 139 -58 151 -23 6 -58 19 -78 30 l-36 18 -125 -132z"/>
</g>
</svg>
